<svg version="1.1" id="Layer_1" xmlns="http://www.w3.org/2000/svg" xmlns:xlink="http://www.w3.org/1999/xlink" x="0px" y="0px"
	 width="50px" height="39px" viewBox="0 0 505 435" enable-background="new 0 0 505 435" xml:space="preserve">
	 <title>Group</title>
	 <desc>Created with Logo Maker.</desc>
<path fill="#FEFFFF" opacity="1.000000" stroke="none" 
	d="
M1.000000,166.000000 
	C1.000000,110.666664 1.000000,55.833332 1.000000,1.000000 
	C169.333328,1.000000 337.666656,1.000000 506.000000,1.000000 
	C506.000000,146.000000 506.000000,291.000000 506.000000,436.000000 
	C337.666656,436.000000 169.333328,436.000000 1.000000,436.000000 
	C1.000000,346.166656 1.000000,256.333344 1.000000,166.000000 
M483.152008,29.653074 
	C463.573700,49.172535 443.950500,68.647530 424.497284,88.290886 
	C422.834869,89.969559 421.382660,92.767197 421.379395,95.047234 
	C421.227478,201.699783 421.269409,308.352600 421.162964,415.005249 
	C421.158875,419.106293 422.542542,420.000427 426.351929,419.972748 
	C448.014648,419.815308 469.679047,419.901642 491.342896,419.884857 
	C492.799255,419.883728 494.255493,419.716461 495.864960,419.616974 
	C495.864960,285.499084 495.864960,151.690857 495.864960,16.607342 
	C491.260651,21.337179 487.456451,25.245108 483.152008,29.653074 
M86.683022,330.500061 
	C86.683037,252.520142 86.654701,174.540176 86.768135,96.560432 
	C86.773712,92.725182 85.591095,90.103622 82.914673,87.463921 
	C66.073242,70.853554 49.394707,54.078148 32.638950,37.380749 
	C25.983065,30.748047 19.267437,24.175291 12.087111,17.089849 
	C12.087111,151.856888 12.087111,285.724121 12.087111,419.849487 
	C28.436121,419.849487 44.241123,419.915955 60.043560,419.745148 
	C61.597450,419.728363 63.433830,418.564453 64.631233,417.407440 
	C70.980904,411.271851 77.077461,404.873260 83.459457,398.772705 
	C85.798302,396.537018 86.783905,394.266479 86.758720,390.984344 
	C86.606590,371.157227 86.682899,351.328339 86.683022,330.500061 
M327.572998,201.075241 
	C325.568512,203.076935 323.296417,204.883331 321.646606,207.143906 
	C320.391876,208.863113 319.218658,211.158112 319.214874,213.199142 
	C319.090576,280.357056 319.147949,347.515259 319.027557,414.673157 
	C319.019958,418.916199 320.398743,420.000549 324.460968,419.968475 
	C346.123535,419.797333 367.788147,419.894043 389.452057,419.873474 
	C390.889252,419.872131 392.326294,419.667175 393.916199,419.545197 
	C393.916199,324.920227 393.916199,230.733368 393.916199,135.316254 
	C371.454193,157.579071 349.763947,179.076981 327.572998,201.075241 
M217.024323,388.499542 
	C217.024323,398.763855 217.024323,409.028137 217.024323,419.619904 
	C242.187469,419.619904 266.742310,419.619904 291.868866,419.619904 
	C291.868866,353.473389 291.868866,287.309998 291.868866,220.534470 
	C288.592712,223.547043 285.610840,226.102997 282.837921,228.868500 
	C261.851715,249.798584 240.861160,270.725006 220.035904,291.814423 
	C218.398575,293.472534 217.168030,296.350433 217.154358,298.669678 
	C216.979752,328.278931 217.062073,357.889679 217.024323,388.499542 
M113.777534,347.178772 
	C113.777534,348.917938 113.777534,350.657104 113.777534,352.886322 
	C114.875542,352.219055 115.333763,352.047638 115.649834,351.733276 
	C139.351929,328.160431 163.078461,304.611694 186.644867,280.903839 
	C188.039139,279.501221 188.738235,276.815186 188.749893,274.720764 
	C188.890747,249.411636 188.925369,224.100708 188.706940,198.792679 
	C188.685806,196.343170 187.402802,193.300095 185.672043,191.561279 
	C162.972855,168.756531 140.090683,146.133896 117.236755,123.483368 
	C116.377571,122.631828 115.339516,121.960754 113.777306,120.725037 
	C113.777306,196.461197 113.777306,271.358521 113.777534,347.178772 
M273.874481,66.376244 
	C290.164886,50.102512 306.455292,33.828777 323.494293,16.807213 
	C276.680328,16.807213 230.960846,16.807213 187.459106,16.807213 
	C209.039597,38.956882 231.565506,62.076908 255.196960,86.331642 
	C261.351135,79.745338 267.363129,73.311203 273.874481,66.376244 
M98.851616,412.353302 
	C96.668640,414.649841 94.485672,416.946411 92.008064,419.552917 
	C125.140923,419.552917 157.388107,419.552917 189.611710,419.552917 
	C189.611710,387.045105 189.611710,354.892548 189.611710,322.739960 
	C189.121658,322.380035 188.631607,322.020081 188.141556,321.660156 
	C158.545013,351.724335 128.948456,381.788513 98.851616,412.353302 
M229.641830,241.142059 
	C232.984283,238.204239 236.326752,235.266403 238.836838,233.060196 
	C230.621658,224.755966 223.337448,217.392792 216.207260,210.185318 
	C216.207260,224.232132 216.207260,238.815094 216.207260,253.398056 
	C216.652435,253.736465 217.097595,254.074860 217.542770,254.413269 
	C221.409195,250.156250 225.275604,245.899231 229.641830,241.142059 
z"/>
<path fill="#40BAC2" opacity="1.000000" stroke="none" 
	d="
M483.402130,29.403055 
	C487.456451,25.245108 491.260651,21.337179 495.864960,16.607342 
	C495.864960,151.690857 495.864960,285.499084 495.864960,419.616974 
	C494.255493,419.716461 492.799255,419.883728 491.342896,419.884857 
	C469.679047,419.901642 448.014648,419.815308 426.351929,419.972748 
	C422.542542,420.000427 421.158875,419.106293 421.162964,415.005249 
	C421.269409,308.352600 421.227478,201.699783 421.379395,95.047234 
	C421.382660,92.767197 422.834869,89.969559 424.497284,88.290886 
	C443.950500,68.647530 463.573700,49.172535 483.402130,29.403055 
z"/>
<path fill="#4F616F" opacity="1.000000" stroke="none" 
	d="
M86.682907,331.000061 
	C86.682899,351.328339 86.606590,371.157227 86.758720,390.984344 
	C86.783905,394.266479 85.798302,396.537018 83.459457,398.772705 
	C77.077461,404.873260 70.980904,411.271851 64.631233,417.407440 
	C63.433830,418.564453 61.597450,419.728363 60.043560,419.745148 
	C44.241123,419.915955 28.436121,419.849487 12.087111,419.849487 
	C12.087111,285.724121 12.087111,151.856888 12.087111,17.089849 
	C19.267437,24.175291 25.983065,30.748047 32.638950,37.380749 
	C49.394707,54.078148 66.073242,70.853554 82.914673,87.463921 
	C85.591095,90.103622 86.773712,92.725182 86.768135,96.560432 
	C86.654701,174.540176 86.683037,252.520142 86.682907,331.000061 
z"/>
<path fill="#66C7CE" opacity="1.000000" stroke="none" 
	d="
M327.823334,200.825073 
	C349.763947,179.076981 371.454193,157.579071 393.916199,135.316254 
	C393.916199,230.733368 393.916199,324.920227 393.916199,419.545197 
	C392.326294,419.667175 390.889252,419.872131 389.452057,419.873474 
	C367.788147,419.894043 346.123535,419.797333 324.460968,419.968475 
	C320.398743,420.000549 319.019958,418.916199 319.027557,414.673157 
	C319.147949,347.515259 319.090576,280.357056 319.214874,213.199142 
	C319.218658,211.158112 320.391876,208.863113 321.646606,207.143906 
	C323.296417,204.883331 325.568512,203.076935 327.823334,200.825073 
z"/>
<path fill="#8CD5DA" opacity="1.000000" stroke="none" 
	d="
M217.051727,387.999817 
	C217.062073,357.889679 216.979752,328.278931 217.154358,298.669678 
	C217.168030,296.350433 218.398575,293.472534 220.035904,291.814423 
	C240.861160,270.725006 261.851715,249.798584 282.837921,228.868500 
	C285.610840,226.102997 288.592712,223.547043 291.868866,220.534470 
	C291.868866,287.309998 291.868866,353.473389 291.868866,419.619904 
	C266.742310,419.619904 242.187469,419.619904 217.024323,419.619904 
	C217.024323,409.028137 217.024323,398.763855 217.051727,387.999817 
z"/>
<path fill="#707F8B" opacity="1.000000" stroke="none" 
	d="
M113.777420,346.717316 
	C113.777306,271.358521 113.777306,196.461197 113.777306,120.725037 
	C115.339516,121.960754 116.377571,122.631828 117.236755,123.483368 
	C140.090683,146.133896 162.972855,168.756531 185.672043,191.561279 
	C187.402802,193.300095 188.685806,196.343170 188.706940,198.792679 
	C188.925369,224.100708 188.890747,249.411636 188.749893,274.720764 
	C188.738235,276.815186 188.039139,279.501221 186.644867,280.903839 
	C163.078461,304.611694 139.351929,328.160431 115.649834,351.733276 
	C115.333763,352.047638 114.875542,352.219055 113.777534,352.886322 
	C113.777534,350.657104 113.777534,348.917938 113.777420,346.717316 
z"/>
<path fill="#759EA7" opacity="1.000000" stroke="none" 
	d="
M273.624817,66.626663 
	C267.363129,73.311203 261.351135,79.745338 255.196960,86.331642 
	C231.565506,62.076908 209.039597,38.956882 187.459106,16.807213 
	C230.960846,16.807213 276.680328,16.807213 323.494293,16.807213 
	C306.455292,33.828777 290.164886,50.102512 273.624817,66.626663 
z"/>
<path fill="#76939E" opacity="1.000000" stroke="none" 
	d="
M99.101761,412.102997 
	C128.948456,381.788513 158.545013,351.724335 188.141556,321.660156 
	C188.631607,322.020081 189.121658,322.380035 189.611710,322.739960 
	C189.611710,354.892548 189.611710,387.045105 189.611710,419.552917 
	C157.388107,419.552917 125.140923,419.552917 92.008064,419.552917 
	C94.485672,416.946411 96.668640,414.649841 99.101761,412.102997 
z"/>
<path fill="#94A0A6" opacity="1.000000" stroke="none" 
	d="
M229.391937,241.392120 
	C225.275604,245.899231 221.409195,250.156250 217.542770,254.413269 
	C217.097595,254.074860 216.652435,253.736465 216.207260,253.398056 
	C216.207260,238.815094 216.207260,224.232132 216.207260,210.185318 
	C223.337448,217.392792 230.621658,224.755966 238.836838,233.060196 
	C236.326752,235.266403 232.984283,238.204239 229.391937,241.392120 
z"/>
</svg>